<?xml version="1.0" encoding="UTF-8" standalone="no"?>
<svg width="376px" height="106px" viewBox="0 0 376 106" version="1.1" xmlns="http://www.w3.org/2000/svg" xmlns:xlink="http://www.w3.org/1999/xlink">
    <!-- Generator: Sketch 50.2 (55047) - http://www.bohemiancoding.com/sketch -->
    <title>endi_logo-blanc</title>
    <desc>Created with Sketch.</desc>
    <defs></defs>
    <g id="Page-1" stroke="none" stroke-width="1" fill="none" fill-rule="evenodd">
        <g id="258_endi_logo-blanc" transform="translate(-91.000000, -89.000000)" fill="#FFFFFE">
            <path d="M205.772,112.861 C197.998,112.861 191.665,116.165 186.768,122.77 L184.903,114.026 L172.195,114.026 L172.195,173.602 L189.217,173.602 L189.217,136.994 C189.217,133.729 190.304,130.952 192.481,128.658 C194.656,126.366 197.261,125.219 200.292,125.219 C203.012,125.219 205.247,126.21 206.996,128.191 C208.744,130.174 209.618,132.681 209.618,135.711 L209.618,173.602 L226.641,173.602 L226.641,131.981 C226.641,125.764 224.677,121.022 220.753,117.758 C216.827,114.493 211.834,112.861 205.772,112.861 Z" id="Fill-1"></path>
            <path d="M326.253,120.741 L319.168,120.741 L319.168,165.721 L326.253,165.721 L326.253,173.602 L303.407,173.602 L303.407,165.721 L310.492,165.721 L310.492,120.741 L303.407,120.741 L303.407,112.861 L326.253,112.861 L326.253,120.741 Z M291.815,146.33 C291.815,151.88 290.781,156.705 288.715,160.807 C286.649,164.911 283.727,168.068 279.95,170.282 C276.171,172.495 271.744,173.602 266.668,173.602 L245.595,173.602 L245.595,112.861 L266.668,112.861 C271.744,112.861 276.171,113.967 279.95,116.181 C283.727,118.394 286.649,121.553 288.715,125.655 C290.781,129.759 291.815,134.585 291.815,140.132 L291.815,146.33 Z M234.823,195 L467.651,195 L467.651,89.186 L234.823,89.186 L234.823,195 Z" id="Fill-2"></path>
            <path d="M266.668,120.741 L254.272,120.741 L254.272,165.721 L266.668,165.721 C271.921,165.721 275.979,164.083 278.843,160.807 C281.705,157.531 283.138,152.705 283.138,146.33 L283.138,140.132 C283.138,133.875 281.734,129.079 278.931,125.743 C276.127,122.409 272.038,120.741 266.668,120.741" id="Fill-3"></path>
            <path d="M116.534,137.343 C116.843,133.613 118.067,130.543 120.205,128.133 C122.343,125.725 125.121,124.519 128.541,124.519 C132.582,124.519 135.517,125.667 137.344,127.958 C139.17,130.252 140.083,133.38 140.083,137.343 L116.534,137.343 Z M143.698,115.833 C139.577,113.851 135.109,112.861 130.29,112.861 L128.425,112.861 C122.905,112.861 117.951,114.026 113.56,116.358 C109.169,118.69 105.691,122.071 103.126,126.501 C100.561,130.932 99.279,136.139 99.279,142.123 L99.279,145.504 C99.279,151.567 100.54,156.795 103.068,161.185 C105.592,165.578 109.072,168.938 113.502,171.27 C117.933,173.602 122.905,174.767 128.425,174.767 L130.29,174.767 C135.109,174.767 139.559,173.931 143.64,172.261 C147.72,170.591 151.003,167.988 153.491,164.45 C155.458,161.652 156.617,158.309 157.027,154.464 L140.611,154.464 C140.185,156.825 139.269,158.731 137.81,160.137 C135.75,162.118 132.931,163.109 129.357,163.109 C125.394,163.109 122.264,161.808 119.972,159.204 C117.679,156.6 116.534,153.356 116.534,149.469 L116.534,146.671 L157.338,146.671 L157.338,137.81 C157.338,132.681 156.094,128.232 153.608,124.461 C151.119,120.691 147.816,117.816 143.698,115.833 Z" id="Fill-4"></path>
        </g>
    </g>
</svg>